<?xml version="1.0" encoding="UTF-8" standalone="no"?>
<svg id="svg2" xmlns:rdf="http://www.w3.org/1999/02/22-rdf-syntax-ns#" xmlns="http://www.w3.org/2000/svg" height="326pt" width="825pt" version="1.1" xmlns:cc="http://creativecommons.org/ns#" xmlns:dc="http://purl.org/dc/elements/1.1/" viewBox="0 0 825 326">
 <metadata id="metadata136">
  <rdf:RDF>
   <cc:Work rdf:about="">
    <dc:format>image/svg+xml</dc:format>
    <dc:type rdf:resource="http://purl.org/dc/dcmitype/StillImage"/>
    <dc:title/>
   </cc:Work>
  </rdf:RDF>
 </metadata>
 <defs id="defs134"></defs>
 <path id="path4" d="M0,0h825v326h-500.18c0.42-33.64,0.06-67.3,0.18-100.95-0.2-18.19,0.42-36.41-0.33-54.6-0.54,12.69-7.87,23.9-16.64,32.59-6.84,6.77-13.58,13.62-20.44,20.37-22.67-22.78-45.46-45.43-68.13-68.2,7.47-7.43,14.89-14.91,22.36-22.35,7.5-7.14,16.74-13.08,27.18-14.46,12.5-1.69,25.32,2.71,34.85,10.8,10.87,9.07,20.27,21.67,20.8,36.33,0.19-3.17,0.36-6.34,0.37-9.51-0.05-51.78,0.01-103.55-0.04-155.33-80.34,0-160.68,0.03-241.03-0.01-1.43-0.08-2.95,0.08-3.89,1.32-26.79,25.93-52.99,52.49-80.06,78.12v-80.12z" fill="#FFF"/>
 <path id="path6" fill="#006a8c" d="M80.06,2c0.94-1.24,2.46-1.4,3.89-1.32,80.35,0.04,160.69,0.01,241.03,0.01,0.05,51.78-0.01,103.55,0.04,155.33-0.01,3.17-0.18,6.34-0.37,9.51-0.53-14.66-9.93-27.26-20.8-36.33-9.53-8.09-22.35-12.49-34.85-10.8-10.44,1.38-19.68,7.32-27.18,14.46-7.47,7.44-14.89,14.92-22.36,22.35,22.67,22.77,45.46,45.42,68.13,68.2,6.86-6.75,13.6-13.6,20.44-20.37,8.77-8.69,16.1-19.9,16.64-32.59,0.75,18.19,0.13,36.41,0.33,54.6-0.12,33.65,0.24,67.31-0.18,100.95h-139.23c1.61-2.5,4.05-4.28,6.07-6.41,1.46-2.86-0.9-5.66-1.91-8.23-12.7-29.45-25.39-58.89-38.09-88.33-2.74,2.71-5.46,5.43-8.17,8.18,11.79,26.82,23.62,53.62,35.39,80.45-26.86-11.67-53.58-23.65-80.38-35.44-2.76,2.7-5.48,5.43-8.21,8.17,30.29,13.1,60.55,26.29,90.84,39.39,1.13,0.64,2.68,0.97,3.31,2.22h-184.44v-245.88c27.07-25.63,53.27-52.19,80.06-78.12z"/>
 <path id="path8" d="M261.98,130.93c8.77-3.75,19.08-2.8,27.33,1.82,8.93,4.95,16.54,12.49,21.3,21.55,4.45,8.35,5,18.72,0.97,27.34-4.78,11.15-15.09,18.24-22.94,27.05-18.36-17.96-36.35-36.31-54.58-54.41,8.85-8.25,16.36-18.71,27.92-23.35z" fill="#006a8c"/>
 <path id="path10" fill="#006a8c" d="m357.76,182c1.64-0.01,3.29-0.01,4.94-0.02,2.9,7.84,5.64,15.74,8.55,23.57,2.84-7.85,5.7-15.7,8.5-23.56,1.68-0.01,3.37-0.01,5.05-0.01-3.81,9.85-7.45,19.76-11.25,29.62-1.6-0.02-3.18-0.05-4.77-0.08-3.58-9.87-7.44-19.65-11.02-29.52z" stroke="#006a8c"/>
 <path id="path12" fill="#006a8c" d="m388.71,181.99c5.53,0.02,11.07,0,16.6,0-0.01,1.43-0.01,2.87-0.01,4.31-3.91,0-7.82-0.01-11.73,0.03,0.01,2.7,0.02,5.4,0.02,8.1,3.9-0.02,7.81-0.02,11.71,0,0,1.45,0.01,2.9,0.02,4.36-3.91,0.03-7.83,0.03-11.74,0.01-0.01,2.79,0,5.59,0.01,8.38,3.91,0.01,7.82,0.01,11.73,0.01-0.01,1.45-0.01,2.9-0.01,4.36-5.54,0.04-11.09,0.06-16.63-0.02,0.04-9.85-0.02-19.69,0.03-29.54z"/>
 <path id="path14" fill="#006a8c" d="m411,182c5.27,0.29,10.84-0.84,15.88,1.1,7.42,3.47,6.19,16.48-2.3,17.68,2.35,3.53,4.59,7.14,6.78,10.77-1.68,0.01-3.34,0.02-5.01,0.03-2.67-4.45-5.34-8.9-8.09-13.3,2.23-0.21,4.68,0.05,6.66-1.21,3.39-2.42,2.98-8.45-0.81-10.24-2.66-0.91-5.54-0.43-8.3-0.53-0.01,8.42,0.03,16.83-0.02,25.25-1.59,0.02-3.18,0.04-4.76,0.06-0.06-9.87-0.03-19.74-0.03-29.61z"/>
 <path id="path16" d="M436.19,182c5.54-0.01,11.08,0.01,16.62-0.01-0.01,1.43-0.01,2.87-0.01,4.32-3.92,0-7.85-0.01-11.77,0-0.02,2.71-0.02,5.41-0.02,8.11,3.93,0,7.87,0,11.8,0.01-0.01,1.45-0.02,2.9-0.02,4.36-3.93,0.02-7.85,0.03-11.78,0.01-0.02,2.79-0.02,5.59,0.04,8.39,3.91-0.01,7.82,0.01,11.73-0.01,0.01,1.46,0.02,2.92,0.04,4.39-5.54,0-11.08,0.01-16.62,0.01-0.03-9.86,0-19.72-0.01-29.58z" fill="#006a8c"/>
 <path id="path18" d="M458.4,182.01c1.51-0.01,3.02-0.01,4.55-0.02,5.09,7.38,10.13,14.78,15.23,22.15,0.04-7.39-0.01-14.77,0.01-22.16,1.54,0.02,3.09,0.04,4.64,0.06-0.04,9.86,0.01,19.71-0.02,29.56-1.55-0.06-3.08-0.12-4.61-0.17-4.86-7.53-10.1-14.8-15.18-22.18-0.08,7.46,0.04,14.91-0.06,22.37-1.52-0.03-3.03-0.05-4.54-0.07-0.02-9.85,0.03-19.7-0.02-29.54z" fill="#006a8c"/>
 <path id="path20" d="M489.19,181.99c1.6,0,3.21,0,4.82,0.01-0.08,9.88,0.11,19.77-0.09,29.66-1.58-0.04-3.15-0.08-4.71-0.11-0.05-9.85-0.02-19.7-0.02-29.56z" fill="#006a8c"/>
 <path id="path22" d="M500.38,202.58c-3.65-7.93,1.13-18.32,9.64-20.48,7.35-2.42,15.72,1.58,19.06,8.43-1.8,0.03-3.59,0.04-5.39,0.02-3.39-5.08-10.94-6.41-15.78-2.63-6.11,4.45-5.29,15.19,1.49,18.59,5.63,3.03,13.52,0.39,15.56-5.87-4.25-0.11-8.5-0.05-12.75-0.06-0.01-1.39-0.02-2.78-0.01-4.16,6.08,0.03,12.18-0.06,18.27,0.06,0.14,6.5-4.15,12.75-10.41,14.62-7.47,2.95-16.92-0.84-19.68-8.52z" fill="#006a8c"/>
 <path id="path24" d="M535.19,182h4.82c-0.01,9.85-0.03,19.71,0.01,29.57-1.62-0.01-3.24-0.02-4.84-0.04,0.02-9.84,0.01-19.68,0.01-29.53z" fill="#006a8c"/>
 <path id="path26" d="M546.4,182.01c1.51-0.01,3.03-0.01,4.56-0.01,5.08,7.38,10.13,14.77,15.22,22.14,0.03-7.38-0.01-14.77,0.01-22.16,1.54,0.02,3.09,0.04,4.64,0.07-0.04,9.84,0.01,19.69-0.02,29.54-1.53-0.05-3.05-0.09-4.56-0.14-4.91-7.51-10.14-14.81-15.22-22.2-0.1,7.46,0.04,14.92-0.07,22.37-1.52-0.02-3.03-0.05-4.54-0.07-0.02-9.85,0.03-19.7-0.02-29.54z" fill="#006a8c"/>
 <path id="path28" d="M580.65,185.62c7.27-7.33,21.03-4.49,25.11,4.91-2.36-0.11-5.28,0.89-6.78-1.53-3.35-3.75-9.36-4.25-13.52-1.62-6.1,3.53-6.46,12.98-1.49,17.64,5.39,4.99,15.49,2.86,17.73-4.38-4.23-0.11-8.47-0.05-12.7-0.05,0-1.39,0-2.78,0.01-4.16,6.01-0.01,12.03,0,18.04-0.03,1.09,11.48-12.94,19.24-22.64,14.11-9.25-4.21-11.41-18.16-3.76-24.89z" fill="#006a8c"/>
 <path id="path30" d="M619.18,181.97c1.68,0.01,3.36,0.02,5.05,0.02,2.81,7.79,5.58,15.6,8.44,23.37,3.11-7.7,5.73-15.59,8.6-23.37,1.66-0.01,3.31-0.01,4.99,0-3.79,9.88-7.32,19.87-11.37,29.64-1.52-0.02-3.03-0.04-4.53-0.04-3.72-9.87-7.42-19.76-11.18-29.62z" fill="#006a8c"/>
 <path id="path32" d="M657.21,182.28c8.03-3.02,17.98,1.76,20.2,10.15,2.96,8.85-4.02,19.03-13.31,19.51-7.93,1.21-16.07-4.81-16.99-12.81-1.16-7.08,3.11-14.77,10.1-16.85z" fill="#006a8c"/>
 <path id="path34" d="M691.3,182.49c8.25-3.45,18.89,1.43,20.96,10.29,2.73,8.68-4.17,18.54-13.2,19.14-7.64,1.24-15.64-4.17-17.01-11.83-1.69-7.11,2.32-15.09,9.25-17.6z" fill="#006a8c"/>
 <path id="path36" d="M718.01,182c5.28,0.28,10.84-0.81,15.91,1.09,7.35,3.54,6.17,16.5-2.35,17.68,2.36,3.53,4.61,7.14,6.77,10.81-1.68-0.01-3.34,0-5-0.01-2.67-4.46-5.36-8.91-8.1-13.33,2.25-0.17,4.73,0.08,6.74-1.19,3.11-2.41,2.94-7.68-0.25-9.92-2.77-1.38-6-0.7-8.97-0.77,0.09,8.4,0.04,16.79,0.05,25.19-1.62,0.01-3.24,0.02-4.84,0.02,0.05-9.85,0-19.71,0.04-29.57z" fill="#006a8c"/>
 <path id="path38" d="M659.22,186.16c8.05-2.83,16.29,5.86,13.57,13.77-1.76,7.56-12.34,10.49-17.74,4.95-6.2-5.21-3.7-16.66,4.17-18.72z" fill="#FFF"/>
 <path id="path40" d="M694.13,186.13c7.99-2.7,16.14,5.98,13.39,13.79-1.74,7.8-12.85,10.58-18.09,4.6-5.81-5.39-3.11-16.55,4.7-18.39z" fill="#FFF"/>
 <path id="path42" d="M172.43,202.26c2.48-2.5,4.96-5,7.47-7.47,32.1,13.34,64.18,26.69,96.31,39.94-2.72,2.92-5.59,5.68-8.4,8.51-9.02-3.74-18.04-7.47-27.05-11.24-10.53,10.54-21.03,21.1-31.6,31.58,3.72,8.97,7.41,17.96,11.32,26.85-2.66,2.95-5.56,5.67-8.37,8.48-13.25-32.21-26.56-64.39-39.68-96.65z" fill="#fefffe"/>
 <path id="path44" d="M184.75,207.72c15.77,6.65,31.48,13.47,47.21,20.26-8.99,8.92-17.83,18-26.94,26.81-6.69-15.72-13.59-31.35-20.27-47.07z" fill="#006a8c"/>
 <path id="path46" d="M357.5,251.58c3.93-9.93,8.16-19.73,12.18-29.62,1.44,0.01,2.89,0.03,4.34,0.04,4.01,9.85,8.06,19.7,12.02,29.58-1.78-0.01-3.54-0.05-5.31-0.07-0.87-2.33-1.78-4.64-2.72-6.93-4.21,0-8.43-0.02-12.63,0.02-0.89,2.33-1.8,4.66-2.71,6.98h-5.17z" fill="#006a8c"/>
 <path id="path48" d="M390.18,222.01c1.6-0.01,3.21-0.02,4.82-0.03,0,8.4,0.01,16.8,0.01,25.21,3.52,0,7.05-0.01,10.57,0.02v4.35c-5.12,0.03-10.23,0.01-15.35,0.02-0.09-9.86-0.02-19.71-0.05-29.57z" fill="#006a8c"/>
 <path id="path50" d="M416.17,223.05c7.81-4.18,18.26-0.03,21.3,8.23-1.67,0.01-3.32,0.01-4.97-0.01-2.13-3.18-5.54-5.74-9.54-5.51-6.3-0.26-11.19,6.13-10.35,12.16,0.35,5.26,5.01,10.03,10.42,9.82,3.86,0.23,7.3-2.21,9.39-5.3,1.65-0.02,3.31-0.02,4.98,0-3.5,10.37-18.56,12.87-25.6,4.75-6.89-6.96-4.65-20.13,4.37-24.14z" fill="#006a8c"/>
 <path id="path52" d="M451.25,222.26c8.9-3.41,19.87,3.08,20.66,12.68,1.34,8.67-6.16,17.15-14.89,17.08-7.6,0.66-15.03-5.3-15.9-12.89-1.17-7.1,3.13-14.79,10.13-16.87z" fill="#006a8c"/>
 <path id="path54" d="M477,221.98c1.6,0.01,3.21,0.02,4.83,0.04-0.02,4.06-0.02,8.12-0.03,12.18,4.2-0.02,8.4-0.01,12.6,0,0.03-4.05,0.04-8.1-0.01-12.15,1.63-0.02,3.26-0.05,4.91-0.07,0.03,9.85-0.01,19.7,0.02,29.55-1.64,0.02-3.27,0.03-4.89,0.05-0.01-4.34,0-8.68-0.02-13.01-4.21,0.03-8.42,0-12.63,0.01,0.05,4.33,0.04,8.66,0,12.99-1.59,0-3.18,0-4.76,0.01-0.05-9.87-0.01-19.73-0.02-29.6z" fill="#006a8c"/>
 <path id="path56" d="M514.28,222.42c8.26-3.37,18.84,1.69,20.76,10.54,2.72,8.91-4.71,18.86-13.97,19.03-7.08,0.8-14.35-4.06-16.07-11.01-2.21-7.34,1.89-16.1,9.28-18.56z" fill="#006a8c"/>
 <path id="path58" d="M540.7,221.99c1.62,0.01,3.25,0.01,4.88,0.03,0,8.39-0.02,16.77,0.01,25.16,3.47,0.01,6.95,0.01,10.43,0-0.03,1.46-0.04,2.93-0.04,4.4-5.1-0.02-10.2,0.04-15.3-0.05,0.03-9.85-0.01-19.69,0.02-29.54z" fill="#006a8c"/>
 <path id="path60" d="M584,222c5.53,0,11.06-0.01,16.59,0.01-0.01,1.43-0.02,2.86-0.01,4.29-3.93,0-7.86,0-11.78,0.01-0.01,2.7,0,5.41,0.02,8.11,3.91-0.01,7.83-0.01,11.75,0.01-0.01,1.45,0,2.9,0.01,4.36-3.93,0.04-7.85,0.03-11.77,0.01-0.02,2.79-0.01,5.59,0,8.38,3.92,0.01,7.84,0,11.77,0.02-0.01,1.45-0.01,2.91-0.01,4.37-5.52,0.02-11.04-0.01-16.56,0.01-0.02-9.86-0.01-19.72-0.01-29.58z" fill="#006a8c"/>
 <path id="path62" d="M606.19,222.02c1.49-0.02,2.99-0.04,4.49-0.05,5.12,7.4,10.16,14.85,15.3,22.23,0.02-7.4,0.03-14.8-0.01-22.2,1.53,0,3.08,0,4.63,0.01-0.06,9.85,0,19.7-0.03,29.55-1.46,0-2.91,0.01-4.35,0.03-5.14-7.42-10.25-14.87-15.4-22.28-0.02,7.41-0.01,14.82,0.01,22.23-1.58-0.02-3.14-0.03-4.69-0.04,0.12-9.83,0.02-19.65,0.05-29.48z" fill="#006a8c"/>
 <path id="path64" d="M645.5,251.58c3.94-9.93,8.15-19.75,12.2-29.63,1.43,0.02,2.87,0.04,4.33,0.06,4.01,9.85,8.03,19.69,12.02,29.55-1.77,0.01-3.53-0.01-5.29-0.03-0.9-2.33-1.81-4.65-2.75-6.96-4.2,0.01-8.39,0.01-12.59-0.01-0.92,2.34-1.84,4.68-2.75,7.02-1.73-0.01-3.45,0-5.17,0z" fill="#006a8c"/>
 <path id="path66" d="M677.7,221.98c1.5,0,3.01,0.01,4.53,0.01,5.05,7.38,10.06,14.78,15.21,22.09-0.05-7.37-0.01-14.73-0.02-22.1,1.53,0.01,3.06,0.02,4.61,0.03-0.11,9.87,0.08,19.75-0.09,29.62-1.43-0.04-2.85-0.07-4.27-0.1-5.15-7.4-10.2-14.87-15.4-22.24,0.06,7.42,0,14.85,0.05,22.28-1.56-0.01-3.1-0.03-4.64-0.03,0.05-9.86-0.01-19.71,0.02-29.56z" fill="#006a8c"/>
 <path id="path68" d="M708.41,221.99c6.16,0.37,12.94-1.2,18.55,2.1,7.24,4.83,7.92,16.17,2.93,22.82-5.36,6.18-14.23,4.46-21.45,4.64-0.04-9.85,0.01-19.7-0.03-29.56z" fill="#006a8c"/>
 <path id="path70" d="M738.19,221.99c5.54-0.01,11.07,0.04,16.62-0.01-0.02,1.44-0.02,2.89-0.02,4.34-3.93-0.02-7.86-0.02-11.78-0.02-0.03,2.71-0.03,5.41-0.02,8.12,3.93,0,7.86-0.01,11.8,0.01,0,1.45,0.01,2.9,0.02,4.35-3.93,0.04-7.87,0.04-11.79,0.02-0.03,2.79-0.03,5.58,0,8.38,3.92,0.01,7.85,0,11.78,0.02-0.01,1.45-0.01,2.9-0.01,4.36-5.53,0.02-11.05,0.01-16.57,0.01-0.06-9.86-0.01-19.72-0.03-29.58z" fill="#006a8c"/>
 <path id="path72" d="M760.41,221.99c5.03,0.21,10.21-0.59,15.12,0.76,6.52,2.19,7.7,12.05,2.54,16.25-1.22,0.8-2.65,1.22-3.97,1.79,2.35,3.52,4.57,7.13,6.75,10.77-1.72,0-3.42-0.03-5.12-0.05-2.48-4.5-5.26-8.81-7.92-13.2,2.1-0.25,4.36-0.09,6.33-1.02,3.51-2.25,3.38-8.07-0.13-10.26-2.72-1.24-5.82-0.6-8.71-0.7,0.01,8.39-0.02,16.79,0.02,25.19-1.63,0.01-3.26,0.05-4.87,0.07-0.07-9.87-0.01-19.74-0.04-29.6z" fill="#006a8c"/>
 <path id="path74" d="M785.7,221.99c5.53-0.01,11.06,0.03,16.6-0.01-0.01,1.44-0.01,2.88,0,4.33-3.92-0.01-7.83-0.01-11.74,0,0.01,2.7,0.02,5.41,0.03,8.11,3.89,0,7.79-0.01,11.69,0.01,0,1.45,0.01,2.9,0.03,4.35-3.91,0.05-7.83,0.03-11.74,0.04,0,2.79,0.01,5.58,0.01,8.37,3.9-0.01,7.82-0.01,11.73,0.01-0.01,1.45-0.02,2.91-0.01,4.37-5.54-0.01-11.08,0.04-16.62-0.02,0.02-9.85,0.02-19.71,0.02-29.56z" fill="#006a8c"/>
 <path id="path76" d="M143.49,231.21c2.71-2.75,5.43-5.47,8.17-8.18,12.7,29.44,25.39,58.88,38.09,88.33,1.01,2.57,3.37,5.37,1.91,8.23-2.02,2.13-4.46,3.91-6.07,6.41h-1.15c-0.63-1.25-2.18-1.58-3.31-2.22-30.29-13.1-60.55-26.29-90.84-39.39,2.73-2.74,5.45-5.47,8.21-8.17,26.8,11.79,53.52,23.77,80.38,35.44-11.77-26.83-23.6-53.63-35.39-80.45z" fill="#fefefe"/>
 <path id="path78" d="M452.33,226.47c5.4-2.23,12.1,0.59,14.11,6.11,2.91,6.5-2.08,15.12-9.37,15.13-5.68,0.63-11.1-4.13-11.46-9.77-0.59-4.74,2.21-9.75,6.72-11.47z" fill="#FFF"/>
 <path id="path80" d="M516.24,226.31c4.74-1.65,10.43,0.23,12.91,4.67,2.67,4.4,1.86,10.66-2.08,14.05-4.35,4.18-12.33,3.47-15.81-1.5-4.52-5.56-1.87-15,4.98-17.22z" fill="#FFF"/>
 <path id="path82" d="M713.31,226.32c4.04,0.03,8.79-0.75,12.06,2.27,4.11,4.17,4.17,11.75,0.29,16.09-3.22,3.26-8.14,2.41-12.26,2.56-0.22-6.97-0.05-13.95-0.09-20.92z" fill="#FFF"/>
 <path id="path84" d="M371.58,227.57c1.8,4.24,3.41,8.55,5.08,12.85-3.32,0-6.63,0-9.95,0.02,1.69-4.27,3.33-8.55,4.87-12.87z" fill="#FFF"/>
 <path id="path86" d="M659.58,227.55c1.78,4.25,3.41,8.57,5.08,12.87-3.32,0-6.63,0-9.94,0.02,1.68-4.28,3.32-8.56,4.86-12.89z" fill="#FFF"/>
 <path id="path88" d="M557,237.99c3.66,0,7.33,0.01,11,0.01-0.01,1.43-0.01,2.86,0,4.3-3.68,0.01-7.36,0-11.03,0,0-1.44,0.01-2.88,0.03-4.31z" fill="#006a8c"/>
 <path id="path90" d="M360,262c6.2,0.37,13.09-1.27,18.67,2.22,7.45,5.27,7.92,17.75,1.48,23.96-5.58,4.8-13.41,3.08-20.13,3.4-0.04-9.86-0.01-19.72-0.02-29.58z" fill="#006a8f"/>
 <path id="path92" d="M389.7,261.99c5.75,0.47,12.2-1.31,17.36,1.95,5.87,4.51,4.1,15.61-3.68,16.85,2.33,3.54,4.51,7.17,6.77,10.76-1.66,0.02-3.31,0.05-4.96,0.08-2.78-4.44-5.44-8.95-8.17-13.42,2.28-0.18,4.86,0.16,6.83-1.27,3.3-2.6,2.7-8.7-1.33-10.24-2.59-0.69-5.31-0.35-7.95-0.38,0.01,8.41,0.03,16.83,0,25.24-1.63,0-3.26,0.01-4.88,0.02,0.01-9.87,0-19.73,0.01-29.59z" fill="#006a8c"/>
 <path id="path94" d="M414.98,262c1.6-0.01,3.22-0.01,4.83-0.01,0.09,6.99-0.18,13.99,0.11,20.97,0.26,3.61,4.36,5.75,7.6,4.45,2.57-0.92,3.54-3.88,3.47-6.38,0.03-6.34,0-12.68-0.01-19.02,1.53-0.02,3.07-0.02,4.61-0.03-0.2,7.3,0.34,14.63-0.28,21.91-0.54,4.97-5.43,8.62-10.32,8.13-4.95,0.16-9.73-3.87-9.9-8.91-0.25-7.03-0.01-14.07-0.11-21.11z" fill="#006a8c"/>
 <path id="path96" d="M442.02,282.93c-3.76-7.84,0.65-18.28,9.07-20.7,7.36-2.59,16.18,1.19,19.41,8.29-1.74,0.04-3.47,0.07-5.19,0.08-3.31-4.65-10.02-6.44-14.95-3.3-6.93,3.85-6.63,15.29,0.23,19.03,5.59,3.31,13.85,0.69,15.86-5.68-4.25-0.12-8.51-0.04-12.76-0.09v-4.14c6.07,0.01,12.14-0.01,18.21,0.02,0.33,6.66-4.29,13.03-10.72,14.79-7.29,2.62-16.31-0.94-19.16-8.3z" fill="#006a8c"/>
 <path id="path98" d="M477,261.99c4.7,0.21,9.51-0.51,14.13,0.56,6.76,2.01,7.84,12.06,2.55,16.22-3.35,2.62-7.9,1.93-11.86,2.04-0.01,3.59-0.02,7.17-0.04,10.75-1.58,0.01-3.17,0.02-4.74,0.04-0.1-9.87-0.02-19.74-0.04-29.61z" fill="#006a8c"/>
 <path id="path100" d="M501,261.99c5.29,0.31,10.89-0.83,15.95,1.13,7.31,3.53,6.13,16.42-2.34,17.63,2.24,3.59,4.6,7.1,6.69,10.79-1.65,0.02-3.29,0.04-4.92,0.05-2.7-4.44-5.37-8.89-8.12-13.3,2.22-0.22,4.66,0,6.66-1.2,3.37-2.42,2.97-8.39-0.75-10.23-2.68-0.98-5.61-0.44-8.39-0.54,0.04,8.41,0.05,16.83,0,25.25h-4.77c-0.03-9.86,0-19.72-0.01-29.58z" fill="#006a8c"/>
 <path id="path102" d="M534.34,262.48c8.26-3.44,18.89,1.47,20.92,10.33,2.71,8.69-4.19,18.49-13.21,19.11-7.65,1.24-15.68-4.22-17.03-11.9-1.61-7.09,2.38-15.07,9.32-17.54z" fill="#006a8c"/>
 <path id="path104" d="M560.7,262.03c4.76,0.23,9.79-0.84,14.34,0.92,5.09,2.2,5.39,10.21,0.42,12.78,5.14,1.8,6.83,8.9,3.02,12.79-4.62,4.81-11.9,2.57-17.79,3.01,0.02-9.83-0.01-19.67,0.01-29.5z" fill="#006a8c"/>
 <path id="path106" d="M585.69,261.96c1.62,0.02,3.25,0.05,4.89,0.08-0.01,8.38,0,16.76-0.01,25.15,3.48,0,6.96,0,10.44-0.01-0.02,1.47-0.03,2.94-0.03,4.41-5.1-0.05-10.2,0.03-15.3-0.04,0.02-9.86,0.03-19.73,0.01-29.59z" fill="#006a8c"/>
 <path id="path108" d="M604.71,261.99c5.53,0.02,11.06,0,16.6,0-0.01,1.43-0.01,2.87-0.01,4.31-3.91,0-7.82-0.01-11.73,0.03,0.01,2.7,0.02,5.4,0.02,8.1,3.9-0.02,7.8-0.02,11.71,0,0,1.45,0,2.9,0.02,4.36-3.92,0.03-7.83,0.03-11.74,0.01-0.01,2.79,0,5.59,0.01,8.38,3.91,0.01,7.81,0.01,11.72,0-0.01,1.45,0,2.91,0.01,4.36-5.55,0.05-11.09,0.06-16.63,0.01,0.02-9.85-0.03-19.71,0.02-29.56z" fill="#006a8c"/>
 <path id="path110" d="M627.18,262.01c2.18-0.01,4.37-0.03,6.56-0.02,2.9,7.45,5.87,14.88,8.95,22.26,3.59-7.18,5.98-14.9,9.16-22.27,2.14,0,4.29,0.01,6.45,0.01,0.01,9.86-0.01,19.72,0.01,29.58-1.44,0-2.88,0.01-4.3,0.02-0.16-8.12,0.25-16.25-0.23-24.35-2.94,8.17-6.31,16.17-9.43,24.27-1.01,0.04-2.02,0.09-3.01,0.14-3.44-8.06-6.42-16.31-9.78-24.4,0.02,8.1,0.04,16.21,0,24.32-1.46-0.01-2.91-0.01-4.36-0.01-0.04-9.85,0.01-19.7-0.02-29.55z" fill="#006a8c"/>
 <path id="path112" d="M664.7,262.03c5.53-0.08,11.06-0.01,16.6-0.04-0.01,1.43-0.01,2.87,0,4.3-3.91,0.01-7.82,0-11.73,0.03,0.01,2.7,0.01,5.4,0.01,8.1h11.71c0,1.45,0,2.92,0.01,4.38-3.91,0.02-7.81,0.02-11.71,0-0.02,2.8-0.02,5.59-0.01,8.39,3.91-0.01,7.82-0.01,11.74,0.01-0.02,1.45-0.03,2.91-0.02,4.37-5.54,0-11.08,0.04-16.61-0.03,0.02-9.84-0.01-19.68,0.01-29.51z" fill="#006a8c"/>
 <path id="path114" d="M686.97,261.96c1.53,0.02,3.07,0.06,4.62,0.09,4.93,7.47,10.09,14.78,15.14,22.17-0.08-7.41-0.02-14.82-0.04-22.23,1.53,0.01,3.06,0.02,4.61,0.03,0.01,9.85-0.01,19.7,0.01,29.56-1.62-0.26-3.86,0.74-4.94-0.89-4.98-7-9.68-14.2-14.73-21.15-0.14,7.34-0.02,14.67-0.08,22.01-1.53,0.01-3.06,0.02-4.58,0.03-0.01-9.87,0.04-19.75-0.01-29.62z" fill="#006a8c"/>
 <path id="path116" d="M364.73,266.42c4.18-0.14,9.18-0.87,12.41,2.44,3.88,4.32,3.89,11.83-0.2,16.03-3.28,3.03-8.06,2.23-12.13,2.29-0.05-6.92,0.09-13.85-0.08-20.76z" fill="#FFF"/>
 <path id="path118" d="M537.19,266.1c7.98-2.61,16.08,6.03,13.34,13.83-1.75,7.78-12.78,10.54-18.06,4.65-5.87-5.42-3.15-16.64,4.72-18.48z" fill="#fefffe"/>
 <path id="path120" d="M565.57,266.31c2.65,0.12,5.72-0.65,8,1.14,1.12,1.55,1.11,3.58,0.26,5.25-2.12,2.26-5.52,1.28-8.24,1.52-0.01-2.64-0.01-5.27-0.02-7.91z" fill="#fefefb"/>
 <path id="path122" d="M481.78,266.32c2.69,0.05,5.54-0.42,8.1,0.63,3.54,1.47,3.39,7.38-0.05,8.87-2.57,0.95-5.36,0.54-8.04,0.6,0.03-3.37,0.02-6.74-0.01-10.1z" fill="#fdfefd"/>
 <path id="path124" d="M727.93,269.7c1.48-0.01,2.97-0.01,4.48-0.01,2.05,5.38,3.71,10.92,6.11,16.17,1.9-5.43,3.85-10.83,5.89-16.2,1.09,0.01,3.28,0.03,4.38,0.04-2.74,7.31-5.54,14.6-8.34,21.88-1.38-0.01-2.76-0.01-4.12,0-2.9-7.26-5.57-14.6-8.4-21.88z" fill="#006a8c"/>
 <path id="path126" d="M750.72,269.69c5.22,0.01,10.45-0.01,15.68,0.01-0.09,1.64,0.07,3.41-1.13,4.72-3.24,4.58-6.42,9.21-9.68,13.77,3.65-0.01,7.31-0.01,10.97,0.02-0.01,1.11,0,2.22,0.02,3.34-5.43,0.05-10.84,0.05-16.26,0,0.17-1.43-0.08-3.03,0.96-4.18,3.39-4.79,6.82-9.55,10.18-14.36-3.6,0.01-7.19,0-10.77,0,0-0.83,0.02-2.49,0.03-3.32z" fill="#006a8c"/>
 <path id="path128" d="M767.97,269.7c1.47-0.01,2.96-0.01,4.45-0.01,1.68,5.42,3.42,10.84,5.02,16.29,1.72-4.96,3.09-10.03,4.71-15.03,1.17,0.02,2.34,0.03,3.53,0.05,1.54,5.01,3.11,10.02,4.69,15.02,1.67-5.46,3.27-10.95,5.07-16.38,1.08,0.02,3.24,0.05,4.33,0.07-2.35,7.27-4.97,14.45-7.13,21.77-1.43-0.01-2.85,0-4.26,0.02-1.39-5-2.94-9.95-4.57-14.87-1.51,4.97-3.01,9.94-4.48,14.91-1.35,0.02-2.7,0.03-4.03,0.06-2.5-7.28-4.88-14.6-7.33-21.9z" fill="#006a8c"/>
 <path id="path130" d="M565.58,278.32c2.56,0.06,5.24-0.38,7.73,0.45,3.05,1.05,3.69,5.73,0.95,7.5-2.58,1.63-5.82,0.69-8.68,0.92-0.01-2.96-0.01-5.92,0-8.87z" fill="#fefefd"/>
</svg>